<svg xmlns="http://www.w3.org/2000/svg" xml:space="preserve" viewBox="0 0 3508 500" preserveAspectRatio="none"><path fill="#e97132" d="M3509 82v418.98H1c0-133.015 0-266.05.398-399.52 1.31-.117 2.203.284 3.137.51 20.7 4.976 41.387 9.997 62.11 14.871a2483 2483 0 0 0 40.452 9.133 8950 8950 0 0 0 59.17 12.642 5738 5738 0 0 0 50.197 10.364c15 3.018 30.024 5.915 45.053 8.782a3624 3624 0 0 0 38.93 7.218c14.118 2.534 28.263 4.91 42.386 7.412 12.191 2.16 24.352 4.498 36.557 6.578 14.639 2.496 29.313 4.78 43.967 7.195 13.678 2.253 27.348 4.562 41.024 6.834 11.745 1.952 23.484 3.942 35.243 5.814a2739 2739 0 0 0 33.902 5.17c12.292 1.798 24.604 3.456 36.9 5.227 10.83 1.56 21.644 3.227 32.475 4.78 10.195 1.463 20.407 2.806 30.603 4.26 10.836 1.547 21.647 3.281 32.498 4.716 11.366 1.503 22.778 2.658 34.148 4.13 11.83 1.532 23.627 3.326 35.454 4.883 8.931 1.175 17.894 2.11 26.831 3.237 9.574 1.209 19.126 2.587 28.703 3.765 9.435 1.16 18.897 2.106 28.336 3.246 9.907 1.196 19.79 2.605 29.703 3.746 9.945 1.146 19.92 2.024 29.872 3.115 11.399 1.249 22.782 2.638 34.18 3.9 7.014.776 14.05 1.367 21.063 2.152 11.068 1.238 22.115 2.668 33.19 3.827 8.178.855 16.399 1.292 24.58 2.121 11.902 1.207 23.778 2.673 35.68 3.886 8.014.818 16.067 1.268 24.08 2.102 11.569 1.204 23.106 2.707 34.677 3.89 8.343.852 16.735 1.235 25.078 2.1 14.834 1.535 29.636 3.378 44.472 4.9 11.441 1.173 22.926 1.93 34.369 3.09 15.168 1.536 30.302 3.406 45.473 4.904 12.109 1.195 24.255 2.012 36.378 3.063 14.896 1.29 29.784 2.663 44.678 3.97 4.593.403 9.197.671 13.79 1.063 15.233 1.3 30.457 2.684 45.694 3.923a1330 1330 0 0 0 28.59 1.993c17.792 1.062 35.589 2.05 53.386 3.02q19.542 1.063 39.09 1.993c14.86.709 29.728 1.289 44.586 2.033 11.37.57 22.728 1.383 34.098 1.957 20.959 1.059 41.924 1.997 62.884 3.034 12.365.612 24.725 1.345 37.09 1.975 20.128 1.026 40.255 2.752 60.39 2.858 38.926.207 77.857-.459 116.786-.876 10.1-.108 20.195-.661 30.293-.963 12.097-.36 24.195-.651 36.292-1.01 10.265-.303 20.528-.66 30.792-.993 20.529-.666 41.06-1.267 61.585-2.022 15.035-.553 30.064-1.288 45.094-1.977 14.031-.643 28.063-1.295 42.091-2.013 11.867-.607 23.73-1.299 35.593-1.983 17.13-.987 34.256-2.041 51.389-2.987 7.926-.437 15.865-.643 23.795-1.035a580 580 0 0 0 16.293-1.035c16.564-1.287 33.122-2.644 49.685-3.942 9.195-.72 18.403-1.286 27.59-2.089 14.067-1.23 28.115-2.68 42.184-3.89 9.517-.82 19.063-1.293 28.581-2.09 14.736-1.237 29.457-2.649 44.19-3.925 8.69-.753 17.4-1.287 26.083-2.1 13.067-1.22 26.117-2.628 39.179-3.902 7.69-.75 15.404-1.27 23.082-2.119 10.738-1.187 21.45-2.616 32.18-3.88 6.678-.786 13.38-1.39 20.056-2.196 10.072-1.217 20.121-2.623 30.198-3.79 9.777-1.133 19.59-1.952 29.363-3.12 9.742-1.165 19.444-2.654 29.178-3.888 11.377-1.442 22.788-2.618 34.147-4.174 13.107-1.796 26.162-3.968 39.262-5.815 12.797-1.804 25.647-3.244 38.43-5.135 14.366-2.125 28.667-4.68 43.024-6.857 16.315-2.476 32.7-4.51 48.985-7.157 20.92-3.401 41.763-7.278 62.656-10.846 20.096-3.433 40.251-6.528 60.312-10.153 18.581-3.357 37.068-7.237 55.603-10.854 25.888-5.05 51.844-9.771 77.657-15.18 31.677-6.636 63.265-13.713 94.839-20.828a8579 8579 0 0 0 90.751-20.978c18.83-4.46 37.602-9.182 56.321-14.084 23.889-6.256 47.722-12.725 71.533-19.271 14.877-4.09 29.69-8.42 44.492-12.775 14.323-4.215 28.596-8.6 42.891-12.91"/><path fill="#e97132" d="M3509 65.531c-27.115 8.374-54.106 16.736-81.373 24.077-42.68 11.491-85.512 22.429-128.348 33.329a2639 2639 0 0 1-69.697 16.74c-29.668 6.696-59.43 12.982-89.174 19.337-26.734 5.712-53.458 11.482-80.263 16.844-21.725 4.346-43.572 8.08-65.35 12.167-17.285 3.244-34.515 6.799-51.83 9.872-18.308 3.25-36.697 6.032-55.031 9.134-13.015 2.202-25.967 4.778-39 6.86-15.968 2.552-32.002 4.687-47.986 7.142-14.351 2.205-28.65 4.764-43.016 6.863-13.112 1.915-26.3 3.313-39.427 5.138-13.1 1.823-26.152 4.002-39.254 5.817-8.926 1.235-17.912 2.031-26.853 3.172-9.4 1.199-18.766 2.688-28.172 3.841-9.604 1.178-19.252 2.002-28.859 3.165-9.739 1.178-19.442 2.647-29.177 3.864-6.512.815-13.053 1.383-19.576 2.112-11.56 1.292-23.109 2.683-34.675 3.915-7.517.8-15.067 1.297-22.584 2.103-11.403 1.221-22.781 2.677-34.187 3.873-8.01.84-16.056 1.346-24.075 2.119-13.065 1.259-26.114 2.681-39.182 3.904-8.684.812-17.395 1.34-26.085 2.093-14.73 1.276-29.451 2.642-44.178 3.944-4.427.391-8.858.753-13.293 1.03-11.195.702-22.398 1.288-33.59 2.031-14.134.939-28.26 1.998-42.39 2.987-14.461 1.011-28.92 2.078-43.387 2.977-17.459 1.086-34.926 2.035-52.39 3.019-12.195.687-24.39 1.39-36.59 1.986-14.861.728-29.727 1.37-44.592 2.015-15.862.688-31.727 1.295-47.588 2.016-7.888.358-15.768.892-23.707.459 5.28-.492 10.556-1.047 15.843-1.463 17.39-1.369 34.787-2.642 52.175-4.042 11.303-.91 22.599-1.914 33.888-2.987 16.83-1.6 33.643-3.379 50.479-4.92 9.346-.857 18.733-1.264 28.082-2.093 13.572-1.204 27.121-2.652 40.688-3.907 8.354-.773 16.734-1.278 25.084-2.088 12.57-1.218 25.12-2.631 37.686-3.896 7.52-.757 15.064-1.296 22.579-2.102 11.4-1.223 22.78-2.641 34.18-3.885 7.185-.784 14.398-1.317 21.583-2.112 11.23-1.242 22.44-2.677 33.672-3.908 10.116-1.11 20.262-1.94 30.37-3.106 9.748-1.125 19.458-2.57 29.195-3.788 8.942-1.12 17.907-2.057 26.846-3.197 9.406-1.2 18.787-2.592 28.19-3.812 8.608-1.117 17.241-2.042 25.845-3.189 11.341-1.51 22.661-3.18 33.997-4.736 10.534-1.446 21.084-2.773 31.612-4.26 10.837-1.531 21.65-3.237 32.484-4.783 10.202-1.457 20.426-2.758 30.628-4.215 9.862-1.407 19.711-2.911 29.562-4.399 10.01-1.512 20.012-3.078 30.024-4.58 9.534-1.43 19.09-2.719 28.61-4.23 11.597-1.839 23.17-3.83 34.748-5.783 13.019-2.194 26.033-4.412 39.048-6.632 12.378-2.111 24.753-4.246 37.132-6.357 13.988-2.386 27.995-4.66 41.962-7.161 13.947-2.498 27.86-5.19 41.777-7.845q28.31-5.401 56.605-10.886c25.901-5.023 51.82-9.965 77.685-15.17 18.981-3.819 37.912-7.899 56.824-12.052 23.663-5.197 47.31-10.472 70.914-15.928 23.444-5.42 46.837-11.057 70.23-16.687 32.094-7.725 64.248-15.215 96.225-23.398 28.957-7.41 57.759-15.44 86.537-23.527 20.469-5.753 40.783-12.056 61.528-18.233.362 8.235.362 16.59.362 25.412M1 23.469c12.395 3.397 24.845 7.096 37.173 11.162 28.104 9.269 56.02 19.13 84.252 27.981 30.065 9.426 60.363 18.122 90.643 26.846 26.84 7.732 53.757 15.202 80.709 22.538 31.663 8.62 63.335 17.218 95.122 25.362 28.187 7.221 56.528 13.842 84.816 20.662 18.643 4.494 37.276 9.042 55.982 13.258 21.101 4.757 42.277 9.182 63.425 13.725 17.974 3.861 35.928 7.824 53.942 11.489 18.035 3.669 36.141 6.992 54.204 10.529 13.874 2.716 27.73 5.53 41.539 9.078-5.03-.405-10.081-.64-15.086-1.251-9.571-1.17-19.12-2.53-28.672-3.856-11.169-1.55-22.326-3.185-33.497-4.711-8.433-1.152-16.886-2.157-25.321-3.29a4594 4594 0 0 1-32.072-4.417 4832 4832 0 0 1-31.533-4.58c-10.336-1.532-20.66-3.137-30.996-4.673-9.858-1.466-19.727-2.854-29.583-4.33a3090 3090 0 0 1-27.598-4.262 3622 3622 0 0 1-28.972-4.734c-13.346-2.235-26.677-4.561-40.027-6.773-14.81-2.454-29.647-4.745-44.447-7.253-13.5-2.287-26.97-4.741-40.446-7.171-14.268-2.573-28.536-5.143-42.784-7.825a4348 4348 0 0 1-42.216-8.178c-17.882-3.549-35.761-7.115-53.614-10.808-18.475-3.823-36.924-7.777-55.372-11.73-22.11-4.735-44.259-9.314-66.3-14.359-22.815-5.222-45.522-10.92-68.277-16.41-1.423-.343-2.848-.683-4.633-.756C1 64.646 1 44.292 1 23.469"/></svg>